<svg id="Capa_1" data-name="Capa 1" xmlns="http://www.w3.org/2000/svg" xmlns:xlink="http://www.w3.org/1999/xlink" viewBox="0 0 763.47 763.47"><defs><style>.cls-1,.cls-2,.cls-3{stroke:#000;stroke-miterlimit:10;stroke-width:8px;}.cls-1{fill:url(#Degradado_sin_nombre_91);}.cls-2{fill:url(#Degradado_sin_nombre_91-2);}.cls-3{fill:url(#Degradado_sin_nombre_91-3);}</style><linearGradient id="Degradado_sin_nombre_91" x1="72.27" y1="450" x2="827.73" y2="450" gradientUnits="userSpaceOnUse"><stop offset="0" stop-color="#b47a1a"/><stop offset="0.23" stop-color="#ffe55a"/><stop offset="0.48" stop-color="#ffec88"/><stop offset="0.77" stop-color="#ffe55a"/><stop offset="1" stop-color="#b47a1a"/></linearGradient><linearGradient id="Degradado_sin_nombre_91-2" x1="189.52" y1="281.72" x2="727.13" y2="281.72" xlink:href="#Degradado_sin_nombre_91"/><linearGradient id="Degradado_sin_nombre_91-3" x1="390.42" y1="499.22" x2="573.55" y2="499.22" xlink:href="#Degradado_sin_nombre_91"/></defs><title>thoth-logo</title><path class="cls-1" d="M450,72.27C241.38,72.27,72.27,241.38,72.27,450S241.38,827.73,450,827.73,827.73,658.62,827.73,450,658.62,72.27,450,72.27Zm0,726.31c-192.51,0-348.58-156.07-348.58-348.58S257.49,101.42,450,101.42,798.58,257.49,798.58,450,642.51,798.58,450,798.58Z" transform="translate(-68.27 -68.27)"/><path class="cls-2" d="M387.06,279.92c271.3-4.11,340.07,53,340.07,53C622.31,224.34,383.38,240.4,383.38,240.4s-94-31.84-167.86,18.67c-46,31.42-25.89,37,20.46,39.25,31.42,1.54,69.84-3.3,79.53-4.55C343.69,290.14,387.06,279.92,387.06,279.92Z" transform="translate(-68.27 -68.27)"/><path class="cls-3" d="M572.24,712.36a3.6,3.6,0,0,1-2.53,6.36c-104.94-6.14-131-99.68-131-254.46,0-111.78-29.46-159.69-47.26-178.43a3.59,3.59,0,0,1,3.95-5.82c28.9,12,83.73,52.49,79.95,186C471.11,615.37,546.15,690.75,572.24,712.36Z" transform="translate(-68.27 -68.27)"/></svg>