<svg id="Capa_1" data-name="Capa 1" xmlns="http://www.w3.org/2000/svg" xmlns:xlink="http://www.w3.org/1999/xlink" viewBox="0 0 767.64 64.94"><defs><style>.cls-1{fill:url(#Degradado_sin_nombre_50);}.cls-2{fill:url(#Degradado_sin_nombre_50-2);}.cls-3{fill:url(#Degradado_sin_nombre_50-3);}.cls-4{fill:url(#Degradado_sin_nombre_50-4);}.cls-5{fill:url(#Degradado_sin_nombre_50-5);}.cls-6{fill:url(#Degradado_sin_nombre_50-6);}.cls-7{fill:url(#Degradado_sin_nombre_50-7);}.cls-8{fill:url(#Degradado_sin_nombre_50-8);}.cls-9{fill:url(#Degradado_sin_nombre_50-9);}.cls-10{fill:url(#Degradado_sin_nombre_50-10);}.cls-11{fill:url(#Degradado_sin_nombre_50-11);}.cls-12{fill:url(#Degradado_sin_nombre_50-12);}.cls-13{fill:url(#Degradado_sin_nombre_50-13);}.cls-14{fill:url(#Degradado_sin_nombre_50-14);}</style><linearGradient id="Degradado_sin_nombre_50" x1="42.39" y1="411.23" x2="118.49" y2="411.23" gradientUnits="userSpaceOnUse"><stop offset="0.02" stop-color="#999"/><stop offset="0.57" stop-color="#b8b7b5"/><stop offset="0.69" stop-color="#ccc"/><stop offset="1" stop-color="#999"/><stop offset="1" stop-color="#080808"/></linearGradient><linearGradient id="Degradado_sin_nombre_50-2" x1="122.55" y1="411.23" x2="179.51" y2="411.23" xlink:href="#Degradado_sin_nombre_50"/><linearGradient id="Degradado_sin_nombre_50-3" x1="189.96" y1="411" x2="230.55" y2="411" xlink:href="#Degradado_sin_nombre_50"/><linearGradient id="Degradado_sin_nombre_50-4" x1="239.71" y1="411.23" x2="283.72" y2="411.23" xlink:href="#Degradado_sin_nombre_50"/><linearGradient id="Degradado_sin_nombre_50-5" x1="309.42" y1="411.23" x2="317.47" y2="411.23" xlink:href="#Degradado_sin_nombre_50"/><linearGradient id="Degradado_sin_nombre_50-6" x1="331.52" y1="411.23" x2="378.31" y2="411.23" xlink:href="#Degradado_sin_nombre_50"/><linearGradient id="Degradado_sin_nombre_50-7" x1="411.97" y1="411" x2="450.34" y2="411" xlink:href="#Degradado_sin_nombre_50"/><linearGradient id="Degradado_sin_nombre_50-8" x1="461.16" y1="411" x2="501.75" y2="411" xlink:href="#Degradado_sin_nombre_50"/><linearGradient id="Degradado_sin_nombre_50-9" x1="507.48" y1="411.23" x2="564.44" y2="411.23" xlink:href="#Degradado_sin_nombre_50"/><linearGradient id="Degradado_sin_nombre_50-10" x1="571.19" y1="411.23" x2="622.32" y2="411.23" xlink:href="#Degradado_sin_nombre_50"/><linearGradient id="Degradado_sin_nombre_50-11" x1="634.62" y1="411" x2="675.21" y2="411" xlink:href="#Degradado_sin_nombre_50"/><linearGradient id="Degradado_sin_nombre_50-12" x1="684.37" y1="411.23" x2="719.41" y2="411.23" xlink:href="#Degradado_sin_nombre_50"/><linearGradient id="Degradado_sin_nombre_50-13" x1="726.71" y1="411.18" x2="764.44" y2="411.18" xlink:href="#Degradado_sin_nombre_50"/><linearGradient id="Degradado_sin_nombre_50-14" x1="772.3" y1="411.18" x2="810.03" y2="411.18" xlink:href="#Degradado_sin_nombre_50"/></defs><title>wip</title><path class="cls-1" d="M58.2,442.67,42.39,379.79h8.5l7.4,31.81c1.85,7.84,3.52,15.68,4.63,21.74h.18c1-6.25,3-13.71,5.09-21.83l8.32-31.72h8.41L92.5,411.7c1.76,7.46,3.43,14.93,4.35,21.55H97c1.29-6.9,3-13.9,5-21.74l8.23-31.72h8.23l-17.66,62.88H92.41l-7.86-32.75a193.23,193.23,0,0,1-4.07-20.52H80.3a198.1,198.1,0,0,1-4.81,20.52l-8.88,32.75Z" transform="translate(-42.39 -378.76)"/><path class="cls-2" d="M179.51,410.58c0,21.64-13,33.12-28.94,33.12-16.46,0-28-12.88-28-31.91,0-20,12.3-33,29-33C168.51,378.76,179.51,391.92,179.51,410.58Zm-48.36,1c0,13.44,7.22,25.48,19.88,25.48s20-11.85,20-26.13c0-12.5-6.48-25.57-19.88-25.57S131.15,397.79,131.15,411.6Z" transform="translate(-42.39 -378.76)"/><path class="cls-3" d="M190,380.63a83,83,0,0,1,15.44-1.31c8.6,0,14.15,1.58,18,5.13a15.71,15.71,0,0,1,4.9,11.94c0,8.31-5.17,13.81-11.74,16.05v.28c4.81,1.68,7.68,6.16,9.16,12.69,2,8.77,3.51,14.84,4.8,17.26h-8.32c-1-1.77-2.4-7.18-4.16-15-1.85-8.68-5.18-11.94-12.48-12.22H198v27.24h-8Zm8,28.64h8.23c8.59,0,14-4.76,14-11.94,0-8.12-5.83-11.67-14.33-11.76a32.31,32.31,0,0,0-8,.75Z" transform="translate(-42.39 -378.76)"/><path class="cls-4" d="M239.71,379.79h8v30.32H248c1.66-2.43,3.33-4.67,4.9-6.72L272,379.79h10L259.4,406.47l24.32,36.2H274.2l-20.53-30.88-5.92,6.9v24h-8Z" transform="translate(-42.39 -378.76)"/><path class="cls-5" d="M317.47,379.79v62.88h-8.05V379.79Z" transform="translate(-42.39 -378.76)"/><path class="cls-6" d="M331.52,442.67V379.79h8.79l20,31.81A179,179,0,0,1,371.47,432l.18-.1c-.74-8.39-.92-16-.92-25.84V379.79h7.58v62.88h-8.14l-19.78-31.91a198,198,0,0,1-11.65-21l-.28.09c.46,7.93.64,15.49.64,25.94v26.87Z" transform="translate(-42.39 -378.76)"/><path class="cls-7" d="M412,380.53a92.77,92.77,0,0,1,15.44-1.21c7.95,0,13.78,1.86,17.47,5.22,3.43,3,5.46,7.56,5.46,13.16s-1.66,10.17-4.81,13.44c-4.25,4.57-11.19,6.9-19,6.9a27.27,27.27,0,0,1-6.47-.56v25.19h-8Zm8,30.33a27.12,27.12,0,0,0,6.66.65c9.71,0,15.63-4.76,15.63-13.44,0-8.3-5.83-12.31-14.71-12.31a33.73,33.73,0,0,0-7.58.65Z" transform="translate(-42.39 -378.76)"/><path class="cls-8" d="M461.16,380.63a83,83,0,0,1,15.44-1.31c8.6,0,14.15,1.58,18,5.13a15.71,15.71,0,0,1,4.9,11.94c0,8.31-5.18,13.81-11.74,16.05v.28c4.81,1.68,7.67,6.16,9.15,12.69,2,8.77,3.52,14.84,4.81,17.26h-8.32c-1-1.77-2.41-7.18-4.16-15-1.85-8.68-5.18-11.94-12.49-12.22H469.2v27.24h-8Zm8,28.64h8.23c8.6,0,14.06-4.76,14.06-11.94,0-8.12-5.83-11.67-14.34-11.76a32.44,32.44,0,0,0-7.95.75Z" transform="translate(-42.39 -378.76)"/><path class="cls-9" d="M564.44,410.58c0,21.64-13,33.12-28.94,33.12-16.46,0-28-12.88-28-31.91,0-20,12.3-33,28.94-33C553.44,378.76,564.44,391.92,564.44,410.58Zm-48.36,1c0,13.44,7.21,25.48,19.88,25.48s20-11.85,20-26.13c0-12.5-6.47-25.57-19.88-25.57S516.08,397.79,516.08,411.6Z" transform="translate(-42.39 -378.76)"/><path class="cls-10" d="M622.32,439.88a57.71,57.71,0,0,1-19.14,3.45c-9.43,0-17.2-2.43-23.3-8.31-5.36-5.22-8.69-13.62-8.69-23.42.09-18.75,12.85-32.47,33.75-32.47,7.21,0,12.85,1.59,15.53,2.89l-1.94,6.63a32.1,32.1,0,0,0-13.78-2.71c-15.16,0-25,9.52-25,25.29,0,16,9.52,25.38,24,25.38,5.27,0,8.88-.75,10.72-1.68V416.17H601.8v-6.53h20.52Z" transform="translate(-42.39 -378.76)"/><path class="cls-11" d="M634.62,380.63a83,83,0,0,1,15.44-1.31c8.6,0,14.15,1.58,18,5.13A15.71,15.71,0,0,1,673,396.39c0,8.31-5.18,13.81-11.75,16.05v.28c4.81,1.68,7.68,6.16,9.16,12.69,2,8.77,3.51,14.84,4.8,17.26h-8.32c-1-1.77-2.4-7.18-4.16-15-1.85-8.68-5.18-11.94-12.48-12.22h-7.58v27.24h-8Zm8,28.64h8.22c8.6,0,14.06-4.76,14.06-11.94,0-8.12-5.83-11.67-14.33-11.76a32.31,32.31,0,0,0-8,.75Z" transform="translate(-42.39 -378.76)"/><path class="cls-12" d="M716.64,413.19H692.41v22.67h27v6.81h-35V379.79H718v6.81H692.41v19.87h24.23Z" transform="translate(-42.39 -378.76)"/><path class="cls-13" d="M728.75,432.78a28.3,28.3,0,0,0,14.42,4.11c8.23,0,13-4.39,13-10.73,0-5.88-3.33-9.24-11.74-12.5C734.3,410,728,404.7,728,395.83c0-9.79,8-17.07,20.16-17.07,6.38,0,11,1.49,13.77,3.08l-2.22,6.62a24.62,24.62,0,0,0-11.83-3c-8.51,0-11.74,5.13-11.74,9.42,0,5.88,3.79,8.77,12.39,12.13,10.54,4.11,15.9,9.24,15.9,18.48,0,9.7-7.12,18.1-21.82,18.1-6,0-12.58-1.78-15.91-4Z" transform="translate(-42.39 -378.76)"/><path class="cls-14" d="M774.33,432.78a28.34,28.34,0,0,0,14.43,4.11c8.23,0,13-4.39,13-10.73,0-5.88-3.33-9.24-11.75-12.5-10.17-3.64-16.46-9-16.46-17.83,0-9.79,8-17.07,20.16-17.07,6.38,0,11,1.49,13.78,3.08l-2.22,6.62a24.66,24.66,0,0,0-11.84-3c-8.5,0-11.74,5.13-11.74,9.42,0,5.88,3.79,8.77,12.39,12.13,10.54,4.11,15.91,9.24,15.91,18.48,0,9.7-7.12,18.1-21.83,18.1-6,0-12.57-1.78-15.9-4Z" transform="translate(-42.39 -378.76)"/></svg>